<svg width="143" height="45" viewBox="0 0 143 45" fill="none" xmlns="http://www.w3.org/2000/svg">
<path d="M10.6123 17.8504H10.0404C10.003 17.7062 9.94538 17.568 9.86922 17.44L10.2744 17.0348C10.3415 17.0535 10.4106 17.0636 10.4802 17.0646C10.6486 17.0653 10.8129 17.0133 10.9502 16.9158C11.0874 16.8182 11.1906 16.6802 11.2454 16.521C11.3001 16.3618 11.3036 16.1894 11.2553 16.0281C11.207 15.8668 11.1094 15.7247 10.9762 15.6218C10.843 15.5188 10.6809 15.4602 10.5127 15.4541C10.3444 15.448 10.1785 15.4948 10.0382 15.5879C9.89794 15.681 9.79035 15.8156 9.73056 15.973C9.67077 16.1304 9.6618 16.3026 9.70489 16.4653L9.29971 16.8705C9.17167 16.7943 9.03349 16.7367 8.88929 16.6993V16.1274C9.04286 16.0387 9.16288 15.9019 9.23074 15.738C9.2986 15.5742 9.3105 15.3926 9.26461 15.2213C9.21871 15.05 9.11758 14.8986 8.9769 14.7907C8.83622 14.6827 8.66385 14.6242 8.48652 14.6242C8.30919 14.6242 8.13682 14.6827 7.99614 14.7907C7.85546 14.8986 7.75433 15.05 7.70843 15.2213C7.66254 15.3926 7.67444 15.5742 7.7423 15.738C7.81016 15.9019 7.93018 16.0387 8.08375 16.1274V16.6993C7.93955 16.7367 7.80137 16.7943 7.67333 16.8705L7.26815 16.4653C7.31061 16.3032 7.30127 16.1319 7.24144 15.9753C7.18161 15.8188 7.07429 15.6849 6.93453 15.5924C6.79476 15.5 6.62956 15.4536 6.4621 15.4597C6.29463 15.4659 6.13329 15.5243 6.0007 15.6268C5.86812 15.7293 5.77093 15.8707 5.72277 16.0312C5.67461 16.1917 5.6779 16.3633 5.73216 16.5219C5.78643 16.6804 5.88896 16.818 6.02537 16.9153C6.16178 17.0127 6.32524 17.0649 6.49282 17.0646C6.56242 17.0636 6.63159 17.0535 6.69863 17.0348L7.10382 17.44C7.02766 17.568 6.97003 17.7062 6.93264 17.8504H6.36071C6.27205 17.6969 6.13519 17.5768 5.97136 17.509C5.80753 17.4411 5.62589 17.4292 5.45461 17.4751C5.28332 17.521 5.13197 17.6221 5.02402 17.7628C4.91607 17.9035 4.85756 18.0759 4.85756 18.2532C4.85756 18.4305 4.91607 18.6029 5.02402 18.7436C5.13197 18.8843 5.28332 18.9854 5.45461 19.0313C5.62589 19.0772 5.80753 19.0653 5.97136 18.9974C6.13519 18.9296 6.27205 18.8095 6.36071 18.656H6.93264C6.97003 18.8002 7.02766 18.9384 7.10382 19.0664L6.69863 19.4716C6.52735 19.4257 6.3457 19.4376 6.18186 19.5054C6.01802 19.5733 5.88115 19.6933 5.79248 19.8468C5.70381 20.0004 5.66829 20.179 5.69143 20.3548C5.71457 20.5306 5.79508 20.6938 5.92048 20.8192C6.04587 20.9446 6.20913 21.0251 6.38495 21.0483C6.56077 21.0714 6.7393 21.0359 6.89287 20.9472C7.04644 20.8586 7.16646 20.7217 7.23431 20.5579C7.30217 20.394 7.31406 20.2124 7.26815 20.0411L7.67333 19.6359C7.80137 19.7121 7.93955 19.7697 8.08375 19.8071V20.379C7.93018 20.4677 7.81016 20.6045 7.7423 20.7684C7.67444 20.9322 7.66254 21.1138 7.70843 21.2851C7.75433 21.4564 7.85546 21.6077 7.99614 21.7157C8.13682 21.8236 8.30919 21.8822 8.48652 21.8822C8.66385 21.8822 8.83622 21.8236 8.9769 21.7157C9.11758 21.6077 9.21871 21.4564 9.26461 21.2851C9.3105 21.1138 9.2986 20.9322 9.23074 20.7684C9.16288 20.6045 9.04286 20.4677 8.88929 20.379V19.8071C9.03349 19.7697 9.17167 19.7121 9.29971 19.6359L9.70489 20.0411C9.65898 20.2124 9.67087 20.394 9.73872 20.5579C9.80658 20.7217 9.92659 20.8586 10.0802 20.9472C10.2337 21.0359 10.4123 21.0714 10.5881 21.0483C10.7639 21.0251 10.9272 20.9446 11.0526 20.8192C11.178 20.6938 11.2585 20.5306 11.2816 20.3548C11.3048 20.179 11.2692 20.0004 11.1806 19.8468C11.0919 19.6933 10.955 19.5733 10.7912 19.5054C10.6273 19.4376 10.4457 19.4257 10.2744 19.4716L9.86922 19.0664C9.94538 18.9384 10.003 18.8002 10.0404 18.656H10.6123C10.701 18.8095 10.8379 18.9296 11.0017 18.9974C11.1655 19.0653 11.3471 19.0772 11.5184 19.0313C11.6897 18.9854 11.8411 18.8843 11.949 18.7436C12.057 18.6029 12.1155 18.4305 12.1155 18.2532C12.1155 18.0759 12.057 17.9035 11.949 17.7628C11.8411 17.6221 11.6897 17.521 11.5184 17.4751C11.3471 17.4292 11.1655 17.4411 11.0017 17.509C10.8379 17.5768 10.701 17.6969 10.6123 17.8504ZM8.48652 19.0587C8.3272 19.0587 8.17146 19.0115 8.03899 18.923C7.90652 18.8345 7.80327 18.7087 7.7423 18.5615C7.68133 18.4143 7.66538 18.2523 7.69646 18.096C7.72754 17.9398 7.80426 17.7963 7.91692 17.6836C8.02958 17.5709 8.17311 17.4942 8.32937 17.4631C8.48563 17.4321 8.64759 17.448 8.79479 17.509C8.94198 17.5699 9.06779 17.6732 9.1563 17.8057C9.24481 17.9381 9.29206 18.0939 9.29206 18.2532C9.29206 18.4668 9.20719 18.6717 9.05612 18.8228C8.90505 18.9739 8.70016 19.0587 8.48652 19.0587Z" fill="url(#paint0_linear)"/>
<path d="M8.48652 13.42C7.5306 13.42 6.59615 13.7034 5.80133 14.2345C5.00651 14.7656 4.38703 15.5205 4.02121 16.4036C3.6554 17.2868 3.55969 18.2586 3.74618 19.1961C3.93267 20.1337 4.39299 20.9949 5.06892 21.6708C5.74486 22.3467 6.60606 22.8071 7.54361 22.9935C8.48116 23.18 9.45296 23.0843 10.3361 22.7185C11.2193 22.3527 11.9741 21.7332 12.5052 20.9384C13.0363 20.1436 13.3197 19.2091 13.3197 18.2532C13.3184 16.9718 12.8087 15.7432 11.9026 14.8371C10.9965 13.931 9.76795 13.4214 8.48652 13.42V13.42ZM8.48652 22.2809C7.68992 22.2809 6.91121 22.0447 6.24886 21.6021C5.58652 21.1595 5.07028 20.5305 4.76543 19.7945C4.46059 19.0586 4.38083 18.2487 4.53623 17.4674C4.69164 16.6861 5.07524 15.9685 5.63852 15.4052C6.2018 14.8419 6.91947 14.4583 7.70076 14.3029C8.48206 14.1475 9.29189 14.2273 10.0279 14.5321C10.7638 14.837 11.3929 15.3532 11.8354 16.0155C12.278 16.6779 12.5142 17.4566 12.5142 18.2532C12.513 19.321 12.0883 20.3448 11.3332 21.0999C10.5781 21.855 9.55437 22.2797 8.48652 22.2809V22.2809Z" fill="url(#paint1_linear)"/>
<path d="M9.29205 25.1003H7.68098C7.57416 25.1003 7.47171 25.1427 7.39618 25.2182C7.32065 25.2938 7.27821 25.3962 7.27821 25.503V27.1141C7.27821 27.2209 7.32065 27.3234 7.39618 27.3989C7.47171 27.4744 7.57416 27.5169 7.68098 27.5169H9.29205C9.39887 27.5169 9.50132 27.4744 9.57685 27.3989C9.65239 27.3234 9.69482 27.2209 9.69482 27.1141V25.503C9.69482 25.3962 9.65239 25.2938 9.57685 25.2182C9.50132 25.1427 9.39887 25.1003 9.29205 25.1003ZM8.88929 26.7113H8.08375V25.9058H8.88929V26.7113Z" fill="url(#paint2_linear)"/>
<path d="M6.06992 25.1003H4.45884C4.35202 25.1003 4.24958 25.1427 4.17404 25.2182C4.09851 25.2938 4.05608 25.3962 4.05608 25.503V27.1141C4.05608 27.2209 4.09851 27.3234 4.17404 27.3989C4.24958 27.4744 4.35202 27.5169 4.45884 27.5169H6.06992C6.17674 27.5169 6.27918 27.4744 6.35472 27.3989C6.43025 27.3234 6.47268 27.2209 6.47268 27.1141V25.503C6.47268 25.3962 6.43025 25.2938 6.35472 25.2182C6.27918 25.1427 6.17674 25.1003 6.06992 25.1003ZM5.66715 26.7113H4.86161V25.9058H5.66715V26.7113Z" fill="url(#paint3_linear)"/>
<path d="M12.5142 25.1003H10.9031C10.7963 25.1003 10.6939 25.1427 10.6183 25.2182C10.5428 25.2938 10.5004 25.3962 10.5004 25.503V27.1141C10.5004 27.2209 10.5428 27.3234 10.6183 27.3989C10.6939 27.4744 10.7963 27.5169 10.9031 27.5169H12.5142C12.621 27.5169 12.7235 27.4744 12.799 27.3989C12.8745 27.3234 12.917 27.2209 12.917 27.1141V25.503C12.917 25.3962 12.8745 25.2938 12.799 25.2182C12.7235 25.1427 12.621 25.1003 12.5142 25.1003ZM12.1114 26.7113H11.3059V25.9058H12.1114V26.7113Z" fill="url(#paint4_linear)"/>
<path d="M8.08376 8.184H8.8893C8.99612 8.184 9.09856 8.14157 9.1741 8.06603C9.24963 7.9905 9.29206 7.88805 9.29206 7.78123C9.29206 7.67441 9.24963 7.57197 9.1741 7.49643C9.09856 7.4209 8.99612 7.37846 8.8893 7.37846H8.08376C7.97694 7.37846 7.87449 7.4209 7.79896 7.49643C7.72343 7.57197 7.68099 7.67441 7.68099 7.78123C7.68099 7.88805 7.72343 7.9905 7.79896 8.06603C7.87449 8.14157 7.97694 8.184 8.08376 8.184Z" fill="url(#paint5_linear)"/>
<path d="M22.5109 11.1886H22.5069C22.5029 11.1846 22.5029 11.1766 22.4988 11.1725C20.8284 9.10191 18.478 7.69052 15.8652 7.18916C15.691 6.88079 15.4383 6.62406 15.1326 6.44507C14.827 6.26608 14.4794 6.17123 14.1253 6.17016H2.84777C2.31367 6.17016 1.80144 6.38233 1.42377 6.76C1.0461 7.13767 0.833931 7.6499 0.833931 8.184V28.3224C0.833931 28.8565 1.0461 29.3687 1.42377 29.7464C1.80144 30.1241 2.31367 30.3362 2.84777 30.3362H14.1253C14.4794 30.3352 14.827 30.2403 15.1326 30.0613C15.4383 29.8823 15.691 29.6256 15.8652 29.3172C18.478 28.8159 20.8284 27.4045 22.4988 25.3339C22.5029 25.3298 22.5029 25.3218 22.5069 25.3178H22.5109C24.1218 23.3156 25 20.823 25 18.2532C25 15.6834 24.1218 13.1908 22.5109 11.1886V11.1886ZM15.3336 28.3224C15.3326 28.6426 15.205 28.9494 14.9786 29.1757C14.7522 29.4021 14.4454 29.5298 14.1253 29.5307H2.84777C2.5276 29.5298 2.22082 29.4021 1.99443 29.1757C1.76803 28.9494 1.64042 28.6426 1.63947 28.3224V8.184C1.64042 7.86383 1.76803 7.55705 1.99443 7.33065C2.22082 7.10426 2.5276 6.97665 2.84777 6.97569H14.1253C14.4454 6.97665 14.7522 7.10426 14.9786 7.33065C15.205 7.55705 15.3326 7.86383 15.3336 8.184V28.3224ZM22.088 11.974C23.3658 13.6749 24.095 15.7247 24.1784 17.8504H20.5615C20.534 16.2535 20.2873 14.6679 19.8285 13.138C20.6221 12.8343 21.3799 12.4439 22.088 11.974V11.974ZM21.5765 11.3498C20.9433 11.7598 20.2699 12.1039 19.5667 12.3768C19.0462 10.8258 18.1512 9.42711 16.9608 8.30483C18.7461 8.8843 20.3412 9.93653 21.5765 11.3498V11.3498ZM16.1391 8.67135C17.2346 9.50508 18.161 10.8825 18.8095 12.6467C17.9385 12.9242 17.045 13.125 16.1391 13.2468V8.67135ZM16.1391 14.0564C17.133 13.9309 18.1133 13.7138 19.0672 13.4079C19.4967 14.8508 19.7284 16.3453 19.756 17.8504H16.1391V14.0564ZM16.1391 18.656H19.756C19.7284 20.1611 19.4967 21.6556 19.0672 23.0985C18.1134 22.7922 17.1331 22.5751 16.1391 22.45V18.656ZM16.1391 27.8351V23.2596C17.0451 23.381 17.9387 23.5818 18.8095 23.8597C18.161 25.6198 17.2346 27.0013 16.1391 27.8351ZM16.9608 28.2016C18.1512 27.0793 19.0462 25.6806 19.5667 24.1296C20.2712 24.4025 20.946 24.7466 21.5805 25.1566C20.3429 26.5691 18.7468 27.6212 16.9608 28.2016V28.2016ZM22.088 24.5324C21.3799 24.0625 20.6221 23.6721 19.8285 23.3684C20.287 21.8384 20.5336 20.2529 20.5615 18.656H24.1784C24.095 20.7817 23.3658 22.8315 22.088 24.5324V24.5324Z" fill="url(#paint6_linear)"/>
<path d="M13.7225 7.37847H11.3341C11.1347 7.37814 10.9384 7.42727 10.7626 7.52146C10.5869 7.61565 10.4373 7.75196 10.3272 7.91817L10.0009 8.40552C9.96445 8.46093 9.91484 8.50646 9.85652 8.53808C9.7982 8.5697 9.73297 8.58643 9.66664 8.58677H7.30641C7.24008 8.58643 7.17485 8.5697 7.11653 8.53808C7.05821 8.50646 7.0086 8.46093 6.97212 8.40552L6.64588 7.91817C6.53576 7.75196 6.38614 7.61565 6.21041 7.52146C6.03468 7.42727 5.83833 7.37814 5.63896 7.37847H3.25054C2.93037 7.37942 2.62359 7.50703 2.3972 7.73343C2.1708 7.95982 2.04319 8.2666 2.04224 8.58677V27.9196C2.04319 28.2398 2.1708 28.5466 2.3972 28.773C2.62359 28.9994 2.93037 29.127 3.25054 29.1279H13.7225C14.0427 29.127 14.3495 28.9994 14.5759 28.773C14.8022 28.5466 14.9299 28.2398 14.9308 27.9196V8.58677C14.9299 8.2666 14.8022 7.95982 14.5759 7.73343C14.3495 7.50703 14.0427 7.37942 13.7225 7.37847V7.37847ZM14.1253 27.9196C14.1253 28.0265 14.0828 28.1289 14.0073 28.2044C13.9318 28.28 13.8293 28.3224 13.7225 28.3224H3.25054C3.14372 28.3224 3.04127 28.28 2.96574 28.2044C2.89021 28.1289 2.84777 28.0265 2.84777 27.9196V8.58677C2.84777 8.47995 2.89021 8.3775 2.96574 8.30197C3.04127 8.22644 3.14372 8.184 3.25054 8.184H5.63896C5.70529 8.18434 5.77052 8.20107 5.82884 8.23269C5.88716 8.26431 5.93677 8.30984 5.97325 8.36525L6.29949 8.8526C6.40961 9.01881 6.55923 9.15512 6.73496 9.24931C6.91069 9.3435 7.10704 9.39263 7.30641 9.39231H9.66664C9.86601 9.39263 10.0624 9.3435 10.2381 9.24931C10.4138 9.15512 10.5634 9.01881 10.6736 8.8526L10.9998 8.36525C11.0363 8.30984 11.0859 8.26431 11.1442 8.23269C11.2025 8.20107 11.2678 8.18434 11.3341 8.184H13.7225C13.8293 8.184 13.9318 8.22644 14.0073 8.30197C14.0828 8.3775 14.1253 8.47995 14.1253 8.58677V27.9196Z" fill="url(#paint7_linear)"/>
<path d="M34.9777 15.9397H41.8177V35.4517H34.9777V15.9397ZM38.3977 13.7797C37.1497 13.7797 36.1417 13.4317 35.3737 12.7357C34.6057 12.0397 34.2217 11.1757 34.2217 10.1437C34.2217 9.11174 34.6057 8.24773 35.3737 7.55174C36.1417 6.85574 37.1497 6.50774 38.3977 6.50774C39.6457 6.50774 40.6537 6.84374 41.4217 7.51574C42.1897 8.16374 42.5737 9.00374 42.5737 10.0357C42.5737 11.1157 42.1897 12.0157 41.4217 12.7357C40.6537 13.4317 39.6457 13.7797 38.3977 13.7797ZM63.4709 30.5557H52.8149L50.8349 35.4517H43.5629L54.6869 10.2517H61.7069L72.8669 35.4517H65.4509L63.4709 30.5557ZM61.3829 25.2997L58.1429 17.2357L54.9029 25.2997H61.3829ZM86.8396 15.6157C88.6156 15.6157 90.2236 16.0357 91.6636 16.8757C93.1276 17.6917 94.2796 18.8677 95.1196 20.4037C95.9836 21.9157 96.4156 23.6797 96.4156 25.6957C96.4156 27.7117 95.9836 29.4877 95.1196 31.0237C94.2796 32.5357 93.1276 33.7117 91.6636 34.5517C90.2236 35.3677 88.6156 35.7757 86.8396 35.7757C84.5596 35.7757 82.7476 35.0917 81.4036 33.7237V42.4357H74.5636V15.9397H81.0796V17.8837C82.3516 16.3717 84.2716 15.6157 86.8396 15.6157ZM85.3996 30.3397C86.5996 30.3397 87.5836 29.9317 88.3516 29.1157C89.1196 28.2757 89.5036 27.1357 89.5036 25.6957C89.5036 24.2557 89.1196 23.1277 88.3516 22.3117C87.5836 21.4717 86.5996 21.0517 85.3996 21.0517C84.1996 21.0517 83.2156 21.4717 82.4476 22.3117C81.6796 23.1277 81.2956 24.2557 81.2956 25.6957C81.2956 27.1357 81.6796 28.2757 82.4476 29.1157C83.2156 29.9317 84.1996 30.3397 85.3996 30.3397ZM111.871 15.6157C113.647 15.6157 115.255 16.0357 116.695 16.8757C118.159 17.6917 119.311 18.8677 120.151 20.4037C121.015 21.9157 121.447 23.6797 121.447 25.6957C121.447 27.7117 121.015 29.4877 120.151 31.0237C119.311 32.5357 118.159 33.7117 116.695 34.5517C115.255 35.3677 113.647 35.7757 111.871 35.7757C109.591 35.7757 107.779 35.0917 106.435 33.7237V42.4357H99.5949V15.9397H106.111V17.8837C107.383 16.3717 109.303 15.6157 111.871 15.6157ZM110.431 30.3397C111.631 30.3397 112.615 29.9317 113.383 29.1157C114.151 28.2757 114.535 27.1357 114.535 25.6957C114.535 24.2557 114.151 23.1277 113.383 22.3117C112.615 21.4717 111.631 21.0517 110.431 21.0517C109.231 21.0517 108.247 21.4717 107.479 22.3117C106.711 23.1277 106.327 24.2557 106.327 25.6957C106.327 27.1357 106.711 28.2757 107.479 29.1157C108.247 29.9317 109.231 30.3397 110.431 30.3397ZM131.718 35.7757C130.086 35.7757 128.478 35.5957 126.894 35.2357C125.31 34.8517 124.038 34.3597 123.078 33.7597L125.13 29.0797C126.018 29.6317 127.074 30.0757 128.298 30.4117C129.522 30.7237 130.734 30.8797 131.934 30.8797C133.038 30.8797 133.818 30.7717 134.274 30.5557C134.754 30.3157 134.994 29.9797 134.994 29.5477C134.994 29.1157 134.706 28.8157 134.13 28.6477C133.578 28.4557 132.69 28.2757 131.466 28.1077C129.906 27.9157 128.574 27.6637 127.47 27.3517C126.39 27.0397 125.454 26.4637 124.662 25.6237C123.87 24.7837 123.474 23.6077 123.474 22.0957C123.474 20.8477 123.846 19.7437 124.59 18.7837C125.334 17.7997 126.414 17.0317 127.83 16.4797C129.27 15.9037 130.986 15.6157 132.978 15.6157C134.394 15.6157 135.798 15.7597 137.19 16.0477C138.582 16.3357 139.746 16.7437 140.682 17.2717L138.63 21.9157C136.902 20.9557 135.03 20.4757 133.014 20.4757C131.934 20.4757 131.142 20.6077 130.638 20.8717C130.134 21.1117 129.882 21.4357 129.882 21.8437C129.882 22.2997 130.158 22.6237 130.71 22.8157C131.262 22.9837 132.174 23.1637 133.446 23.3557C135.054 23.5957 136.386 23.8717 137.442 24.1837C138.498 24.4957 139.41 25.0717 140.178 25.9117C140.97 26.7277 141.366 27.8797 141.366 29.3677C141.366 30.5917 140.994 31.6957 140.25 32.6797C139.506 33.6397 138.402 34.3957 136.938 34.9477C135.498 35.4997 133.758 35.7757 131.718 35.7757Z" fill="#878787"/>
<defs>
<linearGradient id="paint0_linear" x1="8.48652" y1="30.936" x2="8.48652" y2="9.66377" gradientUnits="userSpaceOnUse">
<stop stop-color="#006DF0"/>
<stop offset="1" stop-color="#00E7F0"/>
</linearGradient>
<linearGradient id="paint1_linear" x1="8.48652" y1="30.936" x2="8.48652" y2="9.66377" gradientUnits="userSpaceOnUse">
<stop stop-color="#006DF0"/>
<stop offset="1" stop-color="#00E7F0"/>
</linearGradient>
<linearGradient id="paint2_linear" x1="8.48652" y1="30.936" x2="8.48652" y2="9.66377" gradientUnits="userSpaceOnUse">
<stop stop-color="#006DF0"/>
<stop offset="1" stop-color="#00E7F0"/>
</linearGradient>
<linearGradient id="paint3_linear" x1="35.472" y1="178.528" x2="35.472" y2="50.8951" gradientUnits="userSpaceOnUse">
<stop stop-color="#006DF0"/>
<stop offset="1" stop-color="#00E7F0"/>
</linearGradient>
<linearGradient id="paint4_linear" x1="80.582" y1="178.528" x2="80.582" y2="50.8951" gradientUnits="userSpaceOnUse">
<stop stop-color="#006DF0"/>
<stop offset="1" stop-color="#00E7F0"/>
</linearGradient>
<linearGradient id="paint5_linear" x1="8.48653" y1="30.936" x2="8.48653" y2="9.66377" gradientUnits="userSpaceOnUse">
<stop stop-color="#006DF0"/>
<stop offset="1" stop-color="#00E7F0"/>
</linearGradient>
<linearGradient id="paint6_linear" x1="774.148" y1="1540.45" x2="774.148" y2="264.119" gradientUnits="userSpaceOnUse">
<stop stop-color="#006DF0"/>
<stop offset="1" stop-color="#00E7F0"/>
</linearGradient>
<linearGradient id="paint7_linear" x1="8.48653" y1="30.936" x2="8.48653" y2="9.66377" gradientUnits="userSpaceOnUse">
<stop stop-color="#006DF0"/>
<stop offset="1" stop-color="#00E7F0"/>
</linearGradient>
</defs>
</svg>
